<?xml version="1.0" encoding="UTF-8" standalone="no"?>
<svg width="32px" height="32px" viewBox="0 0 32 32" version="1.1" xmlns="http://www.w3.org/2000/svg" xmlns:xlink="http://www.w3.org/1999/xlink">
    <!-- Generator: Sketch 3.8.3 (29802) - http://www.bohemiancoding.com/sketch -->
    <title>Photo</title>
    <desc>Created with Sketch.</desc>
    <defs></defs>
    <g id="Page-1" stroke="none" stroke-width="1" fill="none" fill-rule="evenodd">
        <g id="GUI" transform="translate(-167.000000, -36.000000)" fill="#000000">
            <g id="Group">
                <g id="Group-8" transform="translate(120.000000, 36.000000)">
                    <path d="M55.9964218,8 L48.9945754,8 C48.4437869,8 47.9964218,8.44537422 47.9964218,8.99477117 L47.9964218,26.0052288 C47.9964218,26.5490746 48.4433104,27 48.9945754,27 L76.9982681,27 C77.5490566,27 77.9964218,26.5546258 77.9964218,26.0052288 L77.9964218,8.99477117 C77.9964218,8.45092539 77.5495331,8 76.9982681,8 L69.9964218,8 L69.9964218,4.99980749 C69.9964218,4.44371665 69.5456417,4 68.9895763,4 L57.0032672,4 C56.4463705,4 55.9964218,4.44762906 55.9964218,4.99980749 L55.9964218,8 Z M56.9964218,17 C56.9964218,13.6916522 59.6878131,11 62.9964218,11 C66.3050304,11 68.9964218,13.6916522 68.9964218,17 C68.9964218,20.3083478 66.3050304,23 62.9964218,23 C59.6878131,23 56.9964218,20.3083478 56.9964218,17 Z M58.9964218,17 C58.9964218,19.2055385 60.7908833,21 62.9964218,21 C65.2019602,21 66.9964218,19.2055385 66.9964218,17 C66.9964218,14.7944615 65.2019602,13 62.9964218,13 C60.7908833,13 58.9964218,14.7944615 58.9964218,17 Z" id="Photo"></path>
                </g>
            </g>
        </g>
    </g>
</svg>