<?xml version="1.0" encoding="UTF-8" standalone="no"?>
<svg width="32px" height="32px" viewBox="0 0 32 32" version="1.1" xmlns="http://www.w3.org/2000/svg" xmlns:xlink="http://www.w3.org/1999/xlink">
    <!-- Generator: Sketch 3.8.3 (29802) - http://www.bohemiancoding.com/sketch -->
    <title>Closed_eyes</title>
    <desc>Created with Sketch.</desc>
    <defs></defs>
    <g id="Page-1" stroke="none" stroke-width="1" fill="none" fill-rule="evenodd">
        <g id="GUI" transform="translate(-286.000000, -16.000000)" fill="#000000">
            <g id="Group">
                <g id="Icons/Closed_eyes" transform="translate(286.000000, 16.000000)">
                    <g id="Combined-Shape">
                        <path d="M16,29 C23.1797017,29 29,23.1797017 29,16 C29,8.82029825 23.1797017,3 16,3 C8.82029825,3 3,8.82029825 3,16 C3,23.1797017 8.82029825,29 16,29 Z M4.81840811,18.5441961 C4.71970737,18.6618231 4.72819928,18.8572511 4.85305152,18.9620145 L5.93301043,19.8682077 C6.05855079,19.9735485 6.24477778,19.9557626 6.350497,19.8297714 L8.50029863,17.2677375 C9.10380672,17.5869345 9.75443792,17.8675869 10.4435826,18.1049399 L9.30711032,21.2273718 C9.25459275,21.3716626 9.32941283,21.5524004 9.48256679,21.6081439 L10.8073325,22.0903192 C10.9613305,22.1463699 11.1302435,22.0659632 11.1864956,21.9114121 L12.3791806,18.6345369 C13.2183341,18.8089086 14.0959418,18.9239336 15,18.9729826 L15,22.7022009 C15,22.855752 15.1321239,23 15.2951069,23 L16.7048931,23 C16.8687744,23 17,22.8666708 17,22.7022009 L17,18.9729826 C17.9040582,18.9239336 18.7816659,18.8089086 19.6208194,18.6345369 L20.8135044,21.9114121 C20.8697565,22.0659632 21.0386695,22.1463699 21.1926675,22.0903192 L22.5174332,21.6081439 C22.6705872,21.5524004 22.7454073,21.3716626 22.6928897,21.2273718 L21.5564174,18.1049399 C22.3312797,17.8380643 23.0574519,17.516448 23.7226954,17.1468501 L26.0225165,19.8876701 C26.1282357,20.0136613 26.3144627,20.0314473 26.440003,19.9261064 L27.5199619,19.0199133 C27.6448142,18.9151498 27.6533061,18.7197218 27.5546054,18.6020949 L24.0856323,14.4970703 C22.2774825,15.9923209 19.3512546,17 16,17 C12.7543584,17 9.90737658,16.054833 8.08976957,14.636977 L4.81840811,18.5441961 Z"></path>
                    </g>
                </g>
            </g>
        </g>
    </g>
</svg>