<?xml version="1.0" encoding="UTF-8" standalone="no"?>
<svg width="32px" height="32px" viewBox="0 0 32 32" version="1.1" xmlns="http://www.w3.org/2000/svg" xmlns:xlink="http://www.w3.org/1999/xlink">
    <!-- Generator: Sketch 3.8.3 (29802) - http://www.bohemiancoding.com/sketch -->
    <title>Poor_quality</title>
    <desc>Created with Sketch.</desc>
    <defs></defs>
    <g id="Page-1" stroke="none" stroke-width="1" fill="none" fill-rule="evenodd">
        <g id="GUI" transform="translate(-370.000000, -16.000000)" fill="#000000">
            <g id="Group">
                <g id="Icons/Poor_quality" transform="translate(370.000000, 16.000000)">
                    <g id="Combined-Shape">
                        <path d="M28,11 L28,9 L26,9 L26,7 L26,5 L25,5 L25,4 L23,4 L21,4 L21,2 L19,2 L18,2 L16,2 L14,2 L12,2 L11,2 L11,4 L9,4 L7,4 L7,6 L5,6 L5,7 L5,9 L4,9 L4,11 L2,11 L2,13 L2,14 L2,16 L2,18 L2,19 L2,21 L2,23 L4,23 L5,23 L5,25 L5,27 L5,28 L7,28 L7,30 L9,30 L11,30 L12,30 L14,30 L16,30 L18,30 L19,30 L21,30 L23,30 L25,30 L25,28 L27,28 L27,27 L27,25 L27,23 L28,23 L30,23 L30,21 L30,19 L30,18 L30,16 L30,14 L30,12 L30,11 L28,11 Z M13,21 L13,19 L11,19 L11,13 L12,13 L12,11 L19,11 L19,13 L21,13 L21,18 L19,18 L19,20 L25,20 L25,22 L28,22 L28,18 L25,18 L25,17 L23,17 L23,11 L25,11 L25,8 L23,8 L23,9 L19,9 L19,8 L18,8 L18,4 L14,4 L14,8 L12,8 L12,9 L9,9 L9,8 L7,8 L7,11 L9,11 L9,17 L7,17 L7,19 L4,19 L4,22 L7,22 L7,21 L9,21 L9,23 L7,23 L7,25 L7,26 L9,26 L9,28 L11,28 L12,28 L14,28 L16,28 L18,28 L20,28 L21,28 L23,28 L23,26 L25,26 L25,25 L25,23 L23,23 L23,21 L21,21 L20,21 L20,23 L20,25 L18,25 L18,23 L18,21 L16,21 L14,21 L14,23 L14,25 L12,25 L12,23 L12,21 L13,21 Z"></path>
                    </g>
                </g>
            </g>
        </g>
    </g>
</svg>