<?xml version="1.0" encoding="utf-8"?>
<!-- Generator: Adobe Illustrator 15.0.2, SVG Export Plug-In  -->
<!DOCTYPE svg PUBLIC "-//W3C//DTD SVG 1.1//EN" "http://www.w3.org/Graphics/SVG/1.1/DTD/svg11.dtd" [
	<!ENTITY ns_flows "http://ns.adobe.com/Flows/1.0/">
]>
<svg version="1.1"
	 xmlns="http://www.w3.org/2000/svg" xmlns:xlink="http://www.w3.org/1999/xlink" xmlns:a="http://ns.adobe.com/AdobeSVGViewerExtensions/3.0/"
	 x="0px" y="0px" width="32px" height="32px" viewBox="-0.997 -4 32 32" enable-background="new -0.997 -4 32 32"
	 xml:space="preserve">
<defs>
</defs>
<path id="Photo_1_" fill="#FFD500" d="M8,4H0.998C0.447,4,0,4.445,0,4.995v17.011C0,22.549,0.447,23,0.998,23h28.003
	C29.552,23,30,22.555,30,22.006V4.995C30,4.451,29.552,4,29.001,4H22V1c0-0.556-0.451-1-1.006-1H9.007C8.45,0,8,0.448,8,1V4z M9,13
	c0-3.309,2.691-6,6-6c3.308,0,6,2.691,6,6s-2.691,6-6,6C11.691,19,9,16.309,9,13z M11,13c0,2.205,1.794,4,4,4s4-1.795,4-4
	c0-2.206-1.794-4-4-4S11,10.794,11,13z"/>
</svg>
