<?xml version="1.0" encoding="UTF-8" standalone="no"?>
<svg width="32px" height="32px" viewBox="0 0 32 32" version="1.1" xmlns="http://www.w3.org/2000/svg" xmlns:xlink="http://www.w3.org/1999/xlink">
    <!-- Generator: Sketch 3.8.3 (29802) - http://www.bohemiancoding.com/sketch -->
    <title>Light</title>
    <desc>Created with Sketch.</desc>
    <defs></defs>
    <g id="Page-1" stroke="none" stroke-width="1" fill="none" fill-rule="evenodd">
        <g id="GUI" transform="translate(-202.000000, -16.000000)" fill="#000000">
            <g id="Group">
                <g id="Icons/Light" transform="translate(202.000000, 16.000000)">
                    <g id="Combined-Shape">
                        <path d="M11.3457032,28.7666016 C11.3457032,28.7666016 10.9936428,28.8032278 11.0301877,29.1515367 L11.1197755,29.810096 C11.1197755,29.810096 11.1566821,30.1580457 11.5091043,30.1235739 L20.4914171,29.0781994 C20.4914171,29.0781994 20.8442011,29.0415731 20.8069327,28.6939825 L20.7173448,28.0365004 C20.7173448,28.0365004 20.678629,27.6860371 20.3291015,27.7230225 L11.3457032,28.7666016 Z M14.3865356,30.6422119 C14.3865356,30.6422119 14.0323043,30.6422119 14.0323043,30.9933934 L14.0323043,31.6434688 C14.0323043,31.6434688 14.0323043,31.9950093 14.3865356,31.9950093 L17.6463013,31.9443885 C17.6463013,31.9443885 17.9987235,31.9443885 17.9987235,31.5928479 L17.9987235,30.6267409 C17.9987235,30.6267409 17.9987235,30.2748413 17.6463013,30.2748413 L14.3865356,30.6422119 Z M14.9269058,0.0187869497 C10.1493057,0.262962204 6.22924209,4.38808768 6.00056569,9.073739 C6.00273666,9.63139219 5.99550007,10.1886863 6.00526947,10.744185 C6.09825972,11.0598174 6.11056193,11.4964602 6.14819223,11.7485353 C6.73182363,15.6065043 10.0418587,17.4923221 10.3635254,20.9481201 C10.4677324,22.0662992 10.4550683,23.6954508 11.7974567,24.1281437 C11.7855163,24.1701562 11.8368962,24.7579723 11.8368962,24.7579723 C11.8368962,24.7579723 11.8738028,25.1062811 12.226225,25.070732 C12.226225,25.070732 20.0102686,24.2552585 20.102897,24.1353254 C21.2603904,23.7284863 21.4413052,22.1966456 21.5882081,20.9639197 C22.0426663,17.2230112 26.0097513,13.8118162 25.9999819,10.4816966 L25.9999819,8.87660339 C25.7651544,4.15504395 21.7521005,0.0999393137 16.9426594,0.0187869497 C16.2663996,-0.0146076072 15.602442,0.00370553691 14.9269058,0.0187869497 Z M11.2886956,26.5821533 C11.2886956,26.5821533 10.9366353,26.6194978 10.9731801,26.9681657 L11.0621581,27.6718371 C11.0621581,27.6718371 11.0990647,28.0208641 11.4514869,27.9838787 L20.5423251,26.9399405 C20.5423251,26.9399405 20.8951091,26.9033142 20.8578407,26.5546463 L20.7688627,25.8520522 C20.7692245,25.8520522 20.7305087,25.5019479 20.3809812,25.5385742 L11.2886956,26.5821533 Z"></path>
                    </g>
                </g>
            </g>
        </g>
    </g>
</svg>