<?xml version="1.0" encoding="UTF-8" standalone="no"?>
<svg width="32px" height="32px" viewBox="0 0 32 32" version="1.1" xmlns="http://www.w3.org/2000/svg" xmlns:xlink="http://www.w3.org/1999/xlink">
    <!-- Generator: Sketch 3.8.3 (29802) - http://www.bohemiancoding.com/sketch -->
    <title>Face_not_found</title>
    <desc>Created with Sketch.</desc>
    <defs></defs>
    <g id="Page-1" stroke="none" stroke-width="1" fill="none" fill-rule="evenodd">
        <g id="GUI" transform="translate(-412.000000, -16.000000)" fill="#000000">
            <g id="Group">
                <g id="Icons/Face_not_found" transform="translate(412.000000, 16.000000)">
                    <g id="Combined-Shape">
                        <path d="M30,3.72822822 L30,2 L2,2 L2,30 L30,30 L30,28 L34.2196381,28 L30,28 L30,3.72822822 Z M28,21.0033255 L28,28 L4,28 L4,4 L28,4 L28,5.07121193 C26.658288,5.27593867 24.130366,5.00024478 24.130366,5.00024478 C24.0821879,5.58872465 24.5639694,5.98104457 24.5639694,5.98104457 C21.7696367,7.69744422 22.9259123,11.6696834 22.9259123,11.6696834 C22.5404871,11.6206434 22.0105275,11.8658434 22.492309,13.533203 C22.829556,14.7592027 23.166803,15.1024827 23.4076938,15.1024827 C23.5040501,15.8380825 23.7449408,16.6227224 24.130366,17.3092822 L24.130366,18.9276019 C24.130366,19.0256819 24.0821879,19.0747219 24.0340097,19.1237618 C23.4558719,19.4180018 20.5170049,20.9382415 17.7708504,23.243121 C17.2890689,23.6354409 17,24.2729608 17,24.9104806 L17,28 L26.3465609,28 L27.2619457,23.7335209 C25.3829979,21.1344014 27.4064801,20.9872815 27.7437272,20.9872815 C27.7958035,20.9872815 27.8880868,20.9896201 28,21.0033255 Z"></path>
                    </g>
                </g>
            </g>
        </g>
    </g>
</svg>