<?xml version="1.0" encoding="UTF-8" standalone="no"?>
<svg width="32px" height="32px" viewBox="0 0 32 32" version="1.1" xmlns="http://www.w3.org/2000/svg" xmlns:xlink="http://www.w3.org/1999/xlink">
    <!-- Generator: Sketch 3.8.3 (29802) - http://www.bohemiancoding.com/sketch -->
    <title>Volume_mute</title>
    <desc>Created with Sketch.</desc>
    <defs></defs>
    <g id="Page-1" stroke="none" stroke-width="1" fill="none" fill-rule="evenodd">
        <g id="GUI" transform="translate(-75.000000, -36.000000)" fill="#000000">
            <g id="Group">
                <g id="Group-6" transform="translate(75.000000, 36.000000)">
                    <path d="M22.0882762,16.0021867 L18.8772098,19.2132532 L20.5589039,20.8949474 L23.7699704,17.6838809 L27.2975442,21.2114547 L28.9851703,19.5238286 L25.4575965,15.9962548 L28.9970341,12.4568173 L27.3153399,10.7751231 L23.7759023,14.3145606 L20.5766996,11.115358 L18.8890735,12.8029841 L22.0882762,16.0021867 Z M10.4638806,10.0535342 L5.00757532,10.0535342 C4.45051886,10.0535342 4,10.4982939 4,11.0469329 L4,20.9515087 C4,21.4932721 4.45110684,21.9449074 5.00757532,21.9449074 L10.4638806,21.9449074 L16.3574474,26.6431885 C17.2229312,27.3331418 17.9222044,26.9919369 17.9222044,25.8833873 L17.9222044,6.11505432 C17.9222044,5.01111818 17.2216388,4.66633006 16.3574474,5.35525311 L10.4638806,10.0535342 Z" id="Volume_mute"></path>
                </g>
            </g>
        </g>
    </g>
</svg>