<?xml version="1.0" encoding="UTF-8" standalone="no"?>
<svg width="32px" height="32px" viewBox="0 0 32 32" version="1.1" xmlns="http://www.w3.org/2000/svg" xmlns:xlink="http://www.w3.org/1999/xlink">
    <!-- Generator: Sketch 3.8.3 (29802) - http://www.bohemiancoding.com/sketch -->
    <title>Resting_face</title>
    <desc>Created with Sketch.</desc>
    <defs></defs>
    <g id="Page-1" stroke="none" stroke-width="1" fill="none" fill-rule="evenodd">
        <g id="GUI" transform="translate(-244.000000, -16.000000)" fill="#000000">
            <g id="Group">
                <g id="Icons/Resting_face" transform="translate(244.000000, 16.000000)">
                    <g id="Shape">
                        <path d="M29.1,26.2388443 L29.1,30 L17.7802247,30 L16.6658427,24.8060231 C18.9532584,21.5821754 16.4898876,21.4627736 16.0793258,21.4627736 L16.0793258,21.4627736 L16.0793258,21.4627736 C15.668764,21.4627736 13.2053933,21.6418763 15.492809,24.8060231 L14.378427,30 L3,30 L3,26.2388443 C3,25.4627328 3.35191011,24.6866214 3.93842697,24.2090143 C7.28157303,21.4030728 10.8593258,19.5523454 11.5631461,19.1941401 C11.6217978,19.1344392 11.6804494,19.0747383 11.6804494,18.9553365 L11.6804494,16.9852074 C11.211236,16.149395 10.9179775,15.1941809 10.8006742,14.2986676 C10.5074157,14.2986676 10.0968539,13.8807614 9.68629213,12.3882393 C9.09977528,10.3584093 9.74494382,10.0599049 10.2141573,10.1196057 C10.2141573,10.1196057 8.80651685,5.28383417 12.2083146,3.19430324 C12.2083146,3.19430324 11.6217978,2.71669618 11.6804494,2.00028557 C11.6804494,2.00028557 14.9649438,2.35849087 16.5485393,2.05998646 C18.1321348,1.70178115 19.8330337,3.01520059 20.1262921,4.20921827 C20.1262921,4.20921827 23.5280899,3.97041473 22.0617978,10.1196057 C22.0617978,10.1196057 22.0617978,10.2390075 22.0031461,10.477811 L22.1204494,10.477811 C22.5310112,10.5972128 22.765618,11.1345208 22.3550562,12.7464446 C21.827191,14.7165738 21.2993258,14.8359756 21.0060674,14.597172 C20.888764,15.2538817 20.712809,16.0299932 20.3608989,16.6867029 L20.3608989,18.9553365 C20.3608989,19.0747383 20.4195506,19.1344392 20.4782022,19.1941401 C21.1820225,19.5523454 24.818427,21.4030728 28.1029213,24.2090143 C28.7480899,24.6866214 29.1,25.403032 29.1,26.2388443 L29.1,26.2388443 Z"></path>
                    </g>
                </g>
            </g>
        </g>
    </g>
</svg>