<?xml version="1.0" encoding="UTF-8" standalone="no"?>
<svg width="32px" height="32px" viewBox="0 0 32 32" version="1.1" xmlns="http://www.w3.org/2000/svg" xmlns:xlink="http://www.w3.org/1999/xlink">
    <!-- Generator: Sketch 3.8.3 (29802) - http://www.bohemiancoding.com/sketch -->
    <title>Sunglasses</title>
    <desc>Created with Sketch.</desc>
    <defs></defs>
    <g id="Page-1" stroke="none" stroke-width="1" fill="none" fill-rule="evenodd">
        <g id="GUI" transform="translate(-120.000000, -36.000000)" fill="#000000">
            <g id="Group">
                <g id="Group-7" transform="translate(119.000000, 36.000000)">
                    <path d="M15.8463514,14.3232034 C15.3236022,14.2907882 14.8272121,14.2364127 14.225631,14.0954241 C12.9764692,13.8028295 11.7381014,13.5194882 10.45852,13.3676071 C9.38890374,13.2155492 7.88697292,13.1922531 6.34396327,13.2454118 C8.46204184,11.4822963 10.9569037,9.57041269 11.4809061,9.57041269 C11.590926,9.57434832 11.6758178,9.61304868 11.747127,9.69438504 C12.043909,10.0335052 11.9929738,10.908527 11.9481509,11.2161621 L11.9372848,11.2942188 L11.9759955,11.3624364 C12.3936634,12.0944636 12.8384968,12.4663807 13.2982711,12.4663807 C13.6792658,12.4663807 13.902022,12.2112206 13.9257917,12.1817034 L13.9964218,12.0970874 L13.9753686,11.9901694 C13.9611067,11.9206399 13.6283306,10.2716108 12.7074237,9.13880523 C11.7539184,7.96664333 10.8662891,8.21458804 10.6754522,8.30248379 L2.31212401,13.5424609 C1.87763917,13.5926332 1.47892135,13.6460512 1.13085629,13.7007246 C1.12366028,13.7016818 1.00329067,13.7029581 0.996421752,13.7042344 C0.996421752,13.7042344 0.996867701,13.8905117 0.997356261,14.1530819 L0.996421752,14.1534542 L0.997365422,14.1580114 C0.998495528,14.7669231 0.999839696,15.7795178 0.996421752,15.8388667 C1.00394485,15.8420575 1.12464156,15.8452483 1.13216466,15.8484391 C1.69083667,16.093491 1.91293169,16.8260943 1.99339616,17.0280707 C2.09119647,17.2737608 2.1314287,17.5344476 2.18212786,17.7922627 C2.23577084,18.0647553 2.29072219,18.337248 2.34600062,18.6097407 C2.37216793,18.7380101 2.39833524,18.8665985 2.42548382,18.995187 C2.63743901,20.0015592 2.71626802,21.0679181 3.27559421,21.9658038 C3.82903276,22.8537981 4.7527387,23.3442211 5.77424496,23.5918257 C6.40487706,23.7446641 7.05775138,23.8020981 7.70342968,23.8531506 C8.18154519,23.8912889 8.67245205,23.8958172 9.16349267,23.8673148 L15.8463514,14.3232034 Z M20.7525753,13.8679127 C21.6712983,13.6621899 22.5914667,13.4791625 23.5339964,13.367288 C24.6035582,13.2152264 26.1052483,13.1917557 27.6480396,13.2447121 C26.1613334,12.0071895 24.4891636,10.696513 23.4432757,10.0251949 L24.2433181,8.8826159 L31.6786208,13.541146 C32.1025292,13.5900437 32.4924305,13.6420427 32.8345115,13.6953002 C32.8508661,13.6978529 32.9803943,13.7004055 32.9964218,13.7029581 C32.9964218,13.7029581 32.9959448,13.8898112 32.9954229,14.1530562 L32.9964218,14.1534542 L32.9954125,14.1583283 C32.9942076,14.7676903 32.9927787,15.7793403 32.9964218,15.8388667 C32.9797401,15.8458864 32.8508661,15.8529062 32.8348386,15.8602449 C32.2944837,16.1164646 32.0779493,16.829285 31.9987932,17.0280707 C31.9009929,17.2737608 31.8610877,17.5344476 31.8103886,17.7922627 C31.7567456,18.0647553 31.7017942,18.3375671 31.6465158,18.6097407 C31.6203485,18.7383291 31.5938541,18.8665985 31.5670326,18.995187 C31.3544232,20.0018783 31.2762484,21.0682372 30.7165951,21.9658038 C30.1631566,22.8541172 29.2394506,23.3445402 28.2176173,23.5918257 C27.5876393,23.744345 26.934765,23.8020981 26.2887596,23.8531506 C25.0844093,23.9491931 23.7995945,23.8320915 22.6351494,23.5110989 C22.1176909,23.368471 21.631306,23.1534124 21.1972558,22.8423113 C20.370696,22.2491452 19.7351575,21.5720615 19.3040512,20.6553502 C18.8978037,19.792244 18.5638435,18.8694702 18.2501629,17.9741372 C18.214306,17.8719707 18.1759042,17.749009 18.1207892,17.6264934 L20.7525767,13.8679113 Z M23.8476814,4 L25.4859855,5.14715287 L8.85226886,28.9025622 L7.21396477,27.7554093 L23.8476814,4 Z" id="Sunglasses"></path>
                </g>
            </g>
        </g>
    </g>
</svg>