<?xml version="1.0" encoding="UTF-8" standalone="no"?>
<svg width="32px" height="32px" viewBox="0 0 32 32" version="1.1" xmlns="http://www.w3.org/2000/svg" xmlns:xlink="http://www.w3.org/1999/xlink">
    <!-- Generator: Sketch 3.8.3 (29802) - http://www.bohemiancoding.com/sketch -->
    <title>Many_faces</title>
    <desc>Created with Sketch.</desc>
    <defs></defs>
    <g id="Page-1" stroke="none" stroke-width="1" fill="none" fill-rule="evenodd">
        <g id="GUI" transform="translate(-328.000000, -16.000000)" fill="#000000">
            <g id="Group">
                <g id="Icons/Many_faces" transform="translate(328.000000, 16.000000)">
                    <g id="Combined-Shape">
                        <path d="M11.8895628,5.60856911 C11.5876294,5.48139153 11.3351927,5.4991124 11.3351927,5.4991124 C11.1361959,4.68888612 9.98201449,3.79763721 8.90743183,4.04070509 C7.83284916,4.24326166 5.89030498,4.00019378 5.89030498,4.00019378 C5.85050562,4.48632955 6.2484992,4.81042006 6.2484992,4.81042006 C3.94013644,6.22831605 4.89532103,9.50973247 4.89532103,9.50973247 C4.57692616,9.46922116 4.13913323,9.67177773 4.53712681,11.0491624 C4.81572231,12.0619452 5.09431782,12.3455244 5.29331461,12.3455244 C5.37291332,12.9531942 5.57191011,13.6013752 5.89030498,14.1685336 L5.89030498,15.5054069 C5.89030498,15.5864296 5.85050562,15.6269409 5.81070626,15.6674522 C5.33311396,15.9105201 2.90535313,17.1663708 0.636789727,19.0704026 C0.238796148,19.3944931 0,19.9211401 0,20.4477872 L0,23 L5.83875095,23 C5.91237557,22.9239923 5.99023031,22.8523724 6.07206418,22.7857203 C7.2837829,21.7682536 8.61118139,20.8352267 9.98242983,19.994459 C10.7004964,19.5541834 11.3212266,19.2034386 11.8732431,18.911407 C12.0128195,18.8375673 11.8676272,18.4764054 11.8676272,18.0473391 C11.8676272,17.9566092 11.4318424,17.0270042 11.2876139,16.3802026 C11.2804284,16.3479785 11.2734723,16.3157244 11.2667472,16.2834473 C11.2310506,16.1121225 10.713659,15.8023002 10.3261904,14.3928088 C9.98514942,13.2119964 10.0863355,12.2738316 10.552487,11.7832131 C10.8283653,11.4928548 10.576875,11.8018061 10.5636201,11.7107083 C10.4349046,10.8260763 10.437803,9.90464309 10.6496502,9.01337686 C10.8706773,8.08348951 11.3061877,7.27378398 11.9811929,6.63939232 C11.8676272,6.41478325 11.8551946,6.02855305 11.8707036,5.83903074 L11.8895628,5.60856911 Z M26.2617611,22.9692383 L31.9605713,22.9692383 L31.9605713,20.4170255 C31.9605713,19.8498671 31.7217751,19.3637313 31.2839822,19.0396408 C29.0552182,17.1356091 26.587658,15.8797583 26.1100657,15.6366905 C26.0702663,15.5961792 26.030467,15.5556678 26.030467,15.4746452 L26.030467,13.9352153 C26.2692631,13.4895908 26.3886612,12.9629437 26.4682599,12.5173193 C26.6672567,12.6793646 27.0254509,12.5983419 27.3836451,11.2614686 C27.6622406,10.1676631 27.5030432,9.80306126 27.2244477,9.72203864 L27.144849,9.72203864 C27.1846483,9.55999338 27.1846483,9.47897075 27.1846483,9.47897075 C28.1796323,5.30630542 25.8712695,5.46835068 25.8712695,5.46835068 C25.6722727,4.6581244 24.5180914,3.76687549 23.4435087,4.00994338 C22.368926,4.21249995 20.4263818,3.96943206 20.4263818,3.96943206 C20.3865825,4.45556783 20.7845761,4.77965834 20.7845761,4.77965834 C20.1109378,5.19343602 19.7152295,5.76591465 19.4926055,6.36923029 C19.6018803,6.50666467 19.6989512,6.6510363 19.7817203,6.80073018 C19.895251,7.00605875 19.60551,6.75782002 19.8734686,6.83796386 C20.0977813,6.90505364 20.3293697,7.00945255 20.5594826,7.1616067 C21.7615864,7.95645603 22.1903492,9.60345798 21.6577038,12.1581281 C21.6306104,12.2880732 22.197096,13.0786186 21.7946782,14.6589914 C21.514934,15.7035382 21.1019309,16.4690869 20.5982921,16.7843526 C20.3947766,16.5452352 20.2913527,17.5387765 20.1656086,17.7339664 C20.1433642,17.7791029 20.2484152,18.4509788 20.2484152,18.9070289 C20.2484152,19.0495319 20.277772,18.9272351 20.547177,19.0726457 C20.9429979,19.2862889 21.3578901,19.5204958 21.7911202,19.7778157 C22.9568334,20.4701989 24.1019986,21.2377861 25.1771307,22.0779864 C25.4767321,22.3121206 25.7679826,22.5497852 25.999755,22.75083 C26.0922445,22.8193291 26.1796302,22.8922465 26.2617611,22.9692383 Z M25.9936523,28 L6,28 L6,25.0448063 C6,24.4350044 6.2765008,23.8252025 6.73733547,23.4499398 C9.3640931,21.2452715 12.1751846,19.7911285 12.7281862,19.5096815 C12.7742697,19.4627736 12.8203531,19.4158658 12.8203531,19.3220501 L12.8203531,17.7740915 C12.4516854,17.1173818 12.2212681,16.3668564 12.1291011,15.6632388 C11.8986838,15.6632388 11.5760995,15.334884 11.2535152,14.162188 C10.7926806,12.5673216 11.2995987,12.3327824 11.6682665,12.3796902 C11.6682665,12.3796902 10.5622632,8.58015542 13.2351043,6.93838112 C13.2351043,6.93838112 12.7742697,6.56311842 12.8203531,6.00022438 C12.8203531,6.00022438 14.8875368,6.2816714 16.1317904,6.04713221 C17.376044,5.76568519 18.7124645,6.79765761 18.9428819,7.73581435 C18.9428819,7.73581435 21.615723,7.548183 20.4636363,12.3796902 C20.4636363,12.3796902 20.4636363,12.4735059 20.4175528,12.6611373 L20.5097198,12.6611373 C20.832304,12.7549529 21.0166379,13.1771235 20.6940536,14.4436351 C20.2793024,15.9915937 19.8645512,16.0854094 19.6341339,15.897778 C19.541967,16.4137642 19.4037165,17.0235661 19.1272157,17.5395523 L19.1272157,19.3220501 C19.1272157,19.4158658 19.1732992,19.4627736 19.2193827,19.5096815 C19.7723843,19.7911285 22.6295592,21.2452715 25.2102334,23.4499398 C25.7171515,23.8252025 25.9936523,24.3880965 25.9936523,25.0448063 L25.9936523,28 Z"></path>
                    </g>
                </g>
            </g>
        </g>
    </g>
</svg>