<?xml version="1.0" encoding="UTF-8" standalone="no"?>
<svg width="32px" height="32px" viewBox="0 0 32 32" version="1.1" xmlns="http://www.w3.org/2000/svg" xmlns:xlink="http://www.w3.org/1999/xlink">
    <!-- Generator: Sketch 3.8.3 (29802) - http://www.bohemiancoding.com/sketch -->
    <title>Logo</title>
    <desc>Created with Sketch.</desc>
    <defs></defs>
    <g id="Page-1" stroke="none" stroke-width="1" fill="none" fill-rule="evenodd">
        <g id="GUI" transform="translate(-33.000000, -36.000000)" fill="#000000">
            <g id="Group">
                <g id="Group-5" transform="translate(33.000000, 36.000000)">
                    <path d="M5.23043868,21.5773193 C5.00841979,21.4571546 4.82843792,21.1534601 4.82843792,20.8938463 L4.82843792,9.94090643 C4.82843792,9.68359943 5.00988951,9.37807759 5.23043868,9.26025797 L10.2750778,6.56536015 C10.4970967,6.44675539 10.8659873,6.45219598 11.0814782,6.5680797 L14.1893405,8.23938319 C14.4126843,8.35948992 14.4139918,8.55580891 14.1955129,8.67608373 L9.19822722,11.4271395 C8.9782924,11.5482158 8.8,11.8502647 8.8,12.1117458 L8.8,18.8039984 C8.8,19.0610197 8.97974833,19.3683299 9.19822722,19.4886047 L14.1955129,22.2396605 C14.4154478,22.3607368 14.4048314,22.558553 14.1745888,22.6800243 L11.09623,24.3041036 C10.8647391,24.4262334 10.495627,24.4270311 10.2750778,24.3076618 L5.23043868,21.5773193 Z M26.7784747,21.5773193 C27.000796,21.4571546 27.181023,21.1534601 27.181023,20.8938463 L27.181023,9.94090643 C27.181023,9.68359943 26.9993243,9.37807759 26.7784747,9.26025797 L21.7269635,6.56536015 C21.5046422,6.44675539 21.1355064,6.45219598 20.9200156,6.5680797 L17.8121532,8.23938319 C17.5888095,8.35948992 17.5874556,8.55580891 17.8058782,8.67608373 L22.8018754,11.4271395 C23.0217536,11.5482158 23.2,11.8502647 23.2,12.1117458 L23.2,18.8039984 C23.2,19.0610197 23.020298,19.3683299 22.8018754,19.4886047 L17.8058782,22.2396605 C17.586,22.3607368 17.5966623,22.558553 17.826905,22.6800243 L20.9052638,24.3041036 C21.1367547,24.4262334 21.5061139,24.4270311 21.7269635,24.3076618 L26.7784747,21.5773193 Z M0.400984669,24.6321454 C0.179526951,24.5125076 0,24.2152911 0,23.9568794 L0,7.04490864 C0,6.79160733 0.183800507,6.48697176 0.400984669,6.36964266 L8.39901533,2.04887764 C8.62047305,1.92923984 8.8,2.03587267 8.8,2.29617258 L8.8,3.96324829 C8.8,4.21946331 8.61546938,4.52688688 8.39988298,4.64338966 L2.80382012,7.6674992 C2.58284159,7.78691589 2.4037031,8.09801044 2.4037031,8.35401459 L2.4037031,22.5721339 C2.4037031,22.8318692 2.58823372,23.1421465 2.80382012,23.2586493 L8.39988298,26.2827589 C8.62086151,26.4021755 8.8,26.7085356 8.8,26.9641565 L8.8,28.7043591 C8.8,28.961268 8.61619949,29.0702395 8.39901533,28.9529104 L0.400984669,24.6321454 Z M31.5990153,24.6321454 C31.820473,24.5125076 32,24.2152911 32,23.9568794 L32,7.04490864 C32,6.79160733 31.8161995,6.48697176 31.5990153,6.36964266 L23.6009847,2.04887764 C23.379527,1.92923984 23.2,2.03587267 23.2,2.29617258 L23.2,3.96324829 C23.2,4.21946331 23.3846375,4.52688688 23.6003487,4.64338966 L29.1996513,7.6674992 C29.4207578,7.78691589 29.6,8.09801044 29.6,8.35401459 L29.6,22.5721339 C29.6,22.8318692 29.4153625,23.1421465 29.1996513,23.2586493 L23.6003487,26.2827589 C23.3792422,26.4021755 23.2,26.7085356 23.2,26.9641565 L23.2,28.7043591 C23.2,28.961268 23.3838005,29.0702395 23.6009847,28.9529104 L31.5990153,24.6321454 Z" id="Logo"></path>
                </g>
            </g>
        </g>
    </g>
</svg>